<?xml version="1.0" encoding="UTF-8" standalone="no"?>
<!-- Generator: Adobe Illustrator 16.0.0, SVG Export Plug-In . SVG Version: 6.00 Build 0)  -->

<svg
   version="1.1"
   id="Layer_1"
   x="0px"
   y="0px"
   width="200px"
   height="76px"
   viewBox="0 0 200 76"
   enable-background="new 0 0 200 76"
   xml:space="preserve"
   sodipodi:docname="Battelle_h.svg"
   inkscape:version="1.2.1 (9c6d41e, 2022-07-14)"
   xmlns:inkscape="http://www.inkscape.org/namespaces/inkscape"
   xmlns:sodipodi="http://sodipodi.sourceforge.net/DTD/sodipodi-0.dtd"
   xmlns="http://www.w3.org/2000/svg"
   xmlns:svg="http://www.w3.org/2000/svg"><defs
   id="defs145" /><sodipodi:namedview
   id="namedview143"
   pagecolor="#ffffff"
   bordercolor="#000000"
   borderopacity="0.25"
   inkscape:showpageshadow="2"
   inkscape:pageopacity="0.0"
   inkscape:pagecheckerboard="0"
   inkscape:deskcolor="#d1d1d1"
   showgrid="false"
   showguides="true"
   inkscape:zoom="3.0711279"
   inkscape:cx="89.218036"
   inkscape:cy="28.002741"
   inkscape:window-width="1250"
   inkscape:window-height="906"
   inkscape:window-x="0"
   inkscape:window-y="25"
   inkscape:window-maximized="0"
   inkscape:current-layer="Layer_1" />
	
<g
   style="overflow:hidden"
   id="g8613"
   transform="matrix(0.65151617,0,0,0.65151617,7.6524183,23.899384)"><path
     fill="#000000"
     d="m 209.92112,33.244701 -4.67698,12.218973 h -29.7231 L 192.92326,0 h 15.59425 l -12.72522,33.244701 z m 56.03374,-21.707683 -2.11444,5.521637 h 14.58727 l -4.0048,10.45909 h -14.58468 l -2.19427,5.726956 h 14.58983 L 267.5542,45.463674 H 208.03076 L 225.43297,0 h 15.59684 l -12.7278,33.244701 h 13.68071 L 254.70794,0 h 30.24848 l -4.4143,11.537018 z m -88.97097,21.707683 -4.67957,12.218973 h -30.24848 l 12.72522,-33.2447 h -11.5637 l -12.7278,33.2447 h -15.66122 l 12.72523,-33.2447 h -17.75763 l -12.72522,33.2447 H 81.409498 L 94.13472,12.218974 H 83.737691 L 88.417256,0 H 189.70653 l -4.41429,11.537018 h -14.58726 l -2.11444,5.521637 h 14.58727 l -4.00223,10.45909 h -14.58984 l -2.18912,5.726956 z M 63.785797,29.832481 H 59.57496 L 66.672859,17.476628 Z M 65.070938,0 36.153956,45.463674 h 13.951131 l 4.100091,-6.758443 h 7.764937 l -1.272266,6.758443 h 15.66122 L 82.313475,0 Z m -31.930242,13.037808 -1.357254,3.551545 c -0.628406,1.63767 -1.836285,2.388065 -3.613335,2.388065 h -2.3694 l 3.188388,-8.327674 h 2.369401 c 1.777049,0 2.436361,0.681955 1.7822,2.388064 z m -6.114082,15.973394 -1.3315,3.483104 c -0.654161,1.70611 -1.862039,2.456505 -3.63909,2.456505 h -2.369399 l 3.214142,-8.396114 h 2.369401 c 1.777049,0 2.410607,0.752839 1.756446,2.456505 z m 13.044577,5.120774 0.862771,-2.253629 c 1.74872,-4.573255 1.00442,-8.122355 -4.422022,-9.420269 6.30209,-1.161035 9.97466,-5.25521 11.594609,-9.486265 l 0.600076,-1.571674 C 51.215099,4.849459 49.252618,0 39.90894,0 H 17.404789 L 0,45.463674 h 22.705034 c 9.343678,0 14.883438,-4.847014 17.366157,-11.331698 z"
     id="Fill-1"
     style="overflow:hidden;stroke-width:0.218525;fill:#c5a47e;fill-opacity:1" /></g></svg>
