<?xml version="1.0" encoding="UTF-8" standalone="no"?>
<!-- Generator: Adobe Illustrator 16.0.0, SVG Export Plug-In . SVG Version: 6.00 Build 0)  -->

<svg
   version="1.1"
   id="Layer_1"
   x="0px"
   y="0px"
   width="200px"
   height="76px"
   viewBox="0 0 200 76"
   enable-background="new 0 0 200 76"
   xml:space="preserve"
   sodipodi:docname="MayoClinic.svg"
   inkscape:version="1.2.1 (9c6d41e, 2022-07-14)"
   xmlns:inkscape="http://www.inkscape.org/namespaces/inkscape"
   xmlns:sodipodi="http://sodipodi.sourceforge.net/DTD/sodipodi-0.dtd"
   xmlns="http://www.w3.org/2000/svg"
   xmlns:svg="http://www.w3.org/2000/svg"><defs
   id="defs9395" /><sodipodi:namedview
   id="namedview9393"
   pagecolor="#ffffff"
   bordercolor="#000000"
   borderopacity="0.25"
   inkscape:showpageshadow="2"
   inkscape:pageopacity="0.0"
   inkscape:pagecheckerboard="0"
   inkscape:deskcolor="#d1d1d1"
   showgrid="false"
   inkscape:zoom="6.9638062"
   inkscape:cx="90.754967"
   inkscape:cy="26.278733"
   inkscape:window-width="1250"
   inkscape:window-height="906"
   inkscape:window-x="0"
   inkscape:window-y="25"
   inkscape:window-maximized="0"
   inkscape:current-layer="Layer_1" />

<path
   d="m 116.30291,13.522192 c 0.81832,0.03064 1.63426,-0.107995 2.39641,-0.40725 0.76228,-0.299257 1.45471,-0.752546 2.03389,-1.331588 0.57917,-0.579044 1.03246,-1.271474 1.33159,-2.0337527 0.29925,-0.7622791 0.43776,-1.5782271 0.40724,-2.3965421 0.0395,-0.8234455 -0.0927,-1.6461017 -0.38791,-2.4158786 -0.29518,-0.7697767 -0.74715,-1.4697054 -1.32725,-2.0555882 -0.58009,-0.5858828 -1.27542,-1.0448286 -2.0423,-1.3477671 -0.76662,-0.3029385 -1.58809,-0.4432925 -2.4118,-0.4121174 -0.82897,-0.04012 -1.65715,0.093657 -2.43127,0.3926494 -0.77425,0.2989922 -1.4772,0.7566227 -2.06426,1.3434263 -0.58681,0.5868035 -1.04444,1.2898891 -1.34343,2.0641384 -0.29886,0.7741176 -0.43277,1.6022985 -0.39252,2.4312688 -0.0312,0.8238399 0.10905,1.6451806 0.41211,2.4119324 0.30294,0.7667508 0.76189,1.4622068 1.34777,2.0421708 0.58588,0.579964 1.28594,1.031938 2.05559,1.327247 0.76965,0.295178 1.5923,0.427376 2.41588,0.387914 z m 0,-10.0264355 c 2.06875,0 3.41493,1.5142978 3.41493,3.8386238 0,2.3243264 -1.35855,3.8386237 -3.41493,3.8386237 -2.05638,0 -3.42729,-1.5142973 -3.42729,-3.8199448 0,-2.3056473 1.34592,-3.8573027 3.42729,-3.8573027 z M 91.570218,11.054486 h 5.091155 l 0.947093,2.212122 H 100.4875 L 95.059863,1.3833427 h -1.81329 L 87.787761,13.266739 h 2.841545 l 0.940912,-2.212121 z M 95.80149,9.0042907 94.140656,5.0983181 92.480085,9.0042907 Z M 79.518579,11.496858 76.508795,6.8232128 V 13.266608 H 73.779322 V 1.3770287 h 1.919313 l 4.517768,7.0540071 4.524083,-7.0540071 h 1.919313 V 13.266608 H 83.930327 V 6.8232128 l -3.009785,4.6736452 h -1.402093 z m 23.411631,1.76975 h 2.76669 V 9.0416484 l 4.58026,-7.6646197 h -3.00979 l -2.93507,5.1908634 -2.93494,-5.1908634 h -3.047135 l 4.580115,7.6647515 V 13.266739 Z M 81.076417,30.004255 v -11.88958 h 2.773012 v 9.596429 h 6.050878 v 2.293151 h -8.823758 z m 13.646965,-11.88958 h -2.766698 v 11.883397 h 2.766698 z m -17.622523,7.882847 2.436531,0.959721 c -0.928546,2.087554 -3.028463,3.302596 -5.595877,3.321275 -4.031726,0 -6.779877,-3.115676 -6.156637,-7.346818 0.243745,-1.242665 0.856331,-2.382861 1.757912,-3.272209 0.901449,-0.889216 2.050063,-1.486148 3.295887,-1.712924 3.04096,-0.411197 5.62087,0.878692 6.642679,3.290098 l -2.43653,0.959722 c -0.252296,-0.610217 -0.687169,-1.1277 -1.244902,-1.481281 -0.557734,-0.353713 -1.211097,-0.526164 -1.870774,-0.494067 -2.093735,0 -3.452157,1.532976 -3.452157,3.857302 0,2.324326 1.345926,3.838493 3.452157,3.838493 0.658887,0.02749 1.311198,-0.139959 1.875377,-0.481176 0.564179,-0.341481 1.015101,-0.84173 1.296466,-1.438005 z m 36.597281,-7.882847 h -2.76669 v 11.883397 h 2.76669 z m 9.9433,9.286651 c 0.55984,-0.331878 1.01102,-0.819762 1.29831,-1.403804 l 2.43653,0.978268 c -0.94091,2.087554 -3.04097,3.302728 -5.60825,3.302728 -4.03172,0 -6.77987,-3.115676 -6.15676,-7.346818 0.24388,-1.242665 0.85647,-2.382861 1.75792,-3.272209 0.90157,-0.889216 2.05006,-1.486148 3.29575,-1.712924 3.05963,-0.41146 5.63954,0.878692 6.6365,3.258924 l -2.43654,0.959721 c -0.25243,-0.610218 -0.68716,-1.127699 -1.2449,-1.481281 -0.55774,-0.353713 -1.21122,-0.526163 -1.87091,-0.494067 -2.06874,0 -3.41492,1.514298 -3.41492,3.838492 0,2.324194 1.34605,3.838492 3.45229,3.838492 0.65033,0.02828 1.29475,-0.133645 1.85471,-0.465522 z M 99.228786,18.114675 h -1.844597 v 11.88958 h 2.729481 v -7.253423 l 6.3125,7.253423 h 1.8446 v -11.88958 h -2.72948 v 7.253424 z m 2.037704,27.773659 v -7.608716 h 20.57008 v 11.609267 c 0,6.985474 -3.37757,11.465886 -10.30057,13.653146 -0.83528,-0.259924 -1.65307,-0.572203 -2.44902,-0.93486 v 0.224277 c -1.02194,5.957351 -4.73586,9.901865 -11.26647,11.945747 -6.524424,-2.044012 -10.244398,-5.988396 -11.26647,-11.945747 0,0 -0.03118,-0.08103 -0.03118,-0.224277 -0.795953,0.362657 -1.614006,0.674936 -2.449027,0.93486 C 77.150582,61.354771 73.773272,56.868046 73.773272,49.888885 V 38.273568 h 20.601132 v 7.614766 z M 84.053712,61.091163 C 78.460202,58.847997 76.20967,55.52725 76.20967,49.434017 v -7.521504 c 0,-0.315699 0.12549,-0.618373 0.348584,-0.841467 0.223225,-0.223225 0.526031,-0.348583 0.841729,-0.348583 h 13.354024 c 0.315697,0 0.618373,0.125358 0.841729,0.348583 0.223093,0.223094 0.348583,0.5259 0.348583,0.841467 v 3.97569 h -5.676907 v 14.164182 c -0.715318,0.392518 -1.454709,0.739522 -2.2137,1.038646 z m 7.884293,-11.650964 v -1.109152 h -2.031516 c -0.315698,0 -0.618373,0.125358 -0.841467,0.348583 -0.223225,0.223093 -0.348583,0.5259 -0.348583,0.841466 v 8.823889 c 2.255662,-2.087552 3.221698,-4.897922 3.221698,-8.904786 z m 5.882505,22.900729 c 5.5647,-2.212122 8.31903,-5.390279 8.94214,-10.699399 0,0 0.0118,-0.118517 0.0375,-0.330167 -3.70787,-2.511377 -5.53353,-6.287651 -5.53353,-11.416032 v -1.55797 h -6.88576 v 1.55797 c 0,5.128381 -1.794744,8.923466 -5.533528,11.416032 0.03723,0.21178 0.03723,0.330167 0.03723,0.330167 0.623108,5.30925 3.371259,8.487277 8.935961,10.699399 z m 5.91368,-22.900729 c 0,4.006864 0.96577,6.817365 3.2217,8.904786 v -8.823889 c 0,-0.15627 -0.0307,-0.311094 -0.0904,-0.455394 -0.0598,-0.144432 -0.14759,-0.275578 -0.25808,-0.386072 -0.11051,-0.110626 -0.24164,-0.198233 -0.38608,-0.258083 -0.14443,-0.05985 -0.29926,-0.0905 -0.45539,-0.0905 h -2.03152 v 1.109152 z m 7.82036,11.665433 c 5.62087,-2.243428 7.86417,-5.564702 7.86417,-11.665433 V 41.92514 c 0,-0.313593 -0.12365,-0.614426 -0.34424,-0.837257 -0.22047,-0.222961 -0.51998,-0.349767 -0.83358,-0.353055 h -13.34153 c -0.31569,0 -0.61837,0.125358 -0.84172,0.348583 -0.2231,0.223225 -0.34846,0.5259 -0.34846,0.841729 v 3.975559 h 5.62705 v 14.164183 c 0.71677,0.393306 1.45761,0.740838 2.21831,1.04075 z"
   fill-rule="evenodd"
   fill="#000000"
   id="path10240"
   style="stroke-width:1.31541;fill:#333333;fill-opacity:1" /></svg>
