<?xml version="1.0" encoding="UTF-8" standalone="no"?>
<!-- Generator: Adobe Illustrator 16.0.0, SVG Export Plug-In . SVG Version: 6.00 Build 0)  -->

<svg
   version="1.1"
   id="Layer_1"
   x="0px"
   y="0px"
   width="200px"
   height="76px"
   viewBox="0 0 200 76"
   enable-background="new 0 0 200 76"
   xml:space="preserve"
   sodipodi:docname="NorthropGrumman_h.svg"
   inkscape:version="1.2.1 (9c6d41e, 2022-07-14)"
   xmlns:inkscape="http://www.inkscape.org/namespaces/inkscape"
   xmlns:sodipodi="http://sodipodi.sourceforge.net/DTD/sodipodi-0.dtd"
   xmlns="http://www.w3.org/2000/svg"
   xmlns:svg="http://www.w3.org/2000/svg"><defs
   id="defs9395"><filter
     id="Adobe_OpacityMaskFilter"
     width="346.39999"
     height="719.40002"
     x="0"
     y="0.30000001"
     filterUnits="userSpaceOnUse"><feColorMatrix
       values="1 0 0 0 0 0 1 0 0 0 0 0 1 0 0 0 0 0 1 0"
       id="feColorMatrix11065" /></filter></defs><sodipodi:namedview
   id="namedview9393"
   pagecolor="#ffffff"
   bordercolor="#000000"
   borderopacity="0.25"
   inkscape:showpageshadow="2"
   inkscape:pageopacity="0.0"
   inkscape:pagecheckerboard="0"
   inkscape:deskcolor="#d1d1d1"
   showgrid="false"
   inkscape:zoom="2.8020348"
   inkscape:cx="78.33593"
   inkscape:cy="-3.2119516"
   inkscape:window-width="1250"
   inkscape:window-height="906"
   inkscape:window-x="0"
   inkscape:window-y="25"
   inkscape:window-maximized="0"
   inkscape:current-layer="Layer_1" />

<g
   id="g13320"
   transform="matrix(0.17144066,0,0,0.17144066,-2.8740053,2.9880729)"
   style="fill:#c5a47e;fill-opacity:1"><path
     d="M 0,0 H 2.372 L 6.623,-5.388 V 0 H 8.99 V -9.09 H 6.55 L 2.372,-3.667 V -9.09 H 0 Z"
     id="path3456"
     style="fill:#c5a47e;fill-opacity:1;fill-rule:nonzero;stroke:none"
     transform="matrix(10.544921,0,0,-10.544921,94.786672,95.857489)" /><path
     d="m 0,0 c 0.486,0.499 0.736,1.151 0.736,1.947 0,0.735 -0.25,1.352 -0.748,1.85 -0.498,0.499 -1.127,0.748 -1.875,0.748 -0.759,0 -1.377,-0.261 -1.875,-0.759 -0.487,-0.499 -0.736,-1.139 -0.736,-1.911 0,-0.771 0.238,-1.4 0.725,-1.899 0.474,-0.486 1.103,-0.735 1.874,-0.735 0.772,0 1.4,0.249 1.899,0.759 m -5.483,-1.59 c -0.949,0.926 -1.413,2.089 -1.413,3.501 0,1.423 0.488,2.598 1.473,3.524 0.961,0.891 2.136,1.341 3.548,1.341 1.412,0 2.611,-0.463 3.572,-1.388 0.961,-0.914 1.436,-2.054 1.436,-3.395 0,-1.447 -0.487,-2.646 -1.46,-3.595 -0.961,-0.914 -2.148,-1.377 -3.56,-1.377 -1.461,0 -2.658,0.463 -3.596,1.389"
     id="path3460"
     style="fill:#c5a47e;fill-opacity:1;fill-rule:nonzero;stroke:none"
     transform="matrix(10.544921,0,0,-10.544921,274.11149,163.81212)" /><path
     d="m 0,0 c 0.819,0 1.222,0.38 1.222,1.139 0,0.759 -0.391,1.14 -1.198,1.14 H -0.715 V 0 Z m -3.085,4.094 h 3.619 c 0.903,0 1.626,-0.25 2.207,-0.736 0.593,-0.522 0.903,-1.222 0.903,-2.112 0,-1.258 -0.523,-2.089 -1.567,-2.481 L 4.51,-4.996 H 1.673 l -1.91,3.204 h -0.478 v -3.204 h -2.37 z"
     id="path3464"
     style="fill:#c5a47e;fill-opacity:1;fill-rule:nonzero;stroke:none"
     transform="matrix(10.544921,0,0,-10.544921,353.29119,139.0305)" /><path
     d="M 0,0 H -1.924 V 2.371 H 4.294 V 0 H 2.369 V -6.72 H 0 Z"
     id="path3468"
     style="fill:#c5a47e;fill-opacity:1;fill-rule:nonzero;stroke:none"
     transform="matrix(10.544921,0,0,-10.544921,424.27433,120.85528)" /><path
     d="M 0,0 H 2.37 V -3.212 H 5.698 V 0 H 8.069 V -9.091 H 5.698 v 3.508 H 2.37 V -9.091 H 0 Z"
     id="path3472"
     style="fill:#c5a47e;fill-opacity:1;fill-rule:nonzero;stroke:none"
     transform="matrix(10.544921,0,0,-10.544921,485.32942,95.857489)" /><path
     d="m 0,0 c 0.818,0 1.222,0.38 1.222,1.139 0,0.759 -0.391,1.14 -1.199,1.14 H -0.715 V 0 Z m -3.085,4.094 h 3.619 c 0.902,0 1.626,-0.25 2.207,-0.736 0.593,-0.522 0.902,-1.222 0.902,-2.112 0,-1.258 -0.522,-2.089 -1.566,-2.481 L 4.51,-4.996 H 1.673 l -1.91,3.204 h -0.478 v -3.204 h -2.37 z"
     id="path3476"
     style="fill:#c5a47e;fill-opacity:1;fill-rule:nonzero;stroke:none"
     transform="matrix(10.544921,0,0,-10.544921,621.60987,139.0305)" /><path
     d="m 0,0 c 0.486,0.499 0.735,1.151 0.735,1.947 0,0.735 -0.249,1.352 -0.748,1.85 -0.498,0.499 -1.127,0.748 -1.875,0.748 -0.758,0 -1.377,-0.261 -1.875,-0.759 -0.485,-0.499 -0.735,-1.139 -0.735,-1.911 0,-0.771 0.237,-1.4 0.724,-1.899 0.474,-0.486 1.104,-0.735 1.875,-0.735 0.772,0 1.4,0.249 1.899,0.759 m -5.482,-1.59 c -0.951,0.926 -1.414,2.089 -1.414,3.501 0,1.423 0.488,2.598 1.473,3.524 0.961,0.891 2.136,1.341 3.548,1.341 1.413,0 2.61,-0.463 3.571,-1.388 0.961,-0.914 1.437,-2.054 1.437,-3.395 0,-1.447 -0.487,-2.646 -1.46,-3.595 -0.961,-0.914 -2.149,-1.377 -3.561,-1.377 -1.46,0 -2.657,0.463 -3.594,1.389"
     id="path3480"
     style="fill:#c5a47e;fill-opacity:1;fill-rule:nonzero;stroke:none"
     transform="matrix(10.544921,0,0,-10.544921,745.47157,163.81212)" /><path
     d="M 0,0 C 0.937,0 1.4,0.404 1.4,1.222 1.4,2.005 0.949,2.385 0.023,2.385 H -0.786 V 0 Z m -3.157,4.177 h 4.059 c 0.878,0 1.59,-0.284 2.1,-0.878 0.512,-0.546 0.76,-1.281 0.76,-2.172 0,-0.854 -0.248,-1.542 -0.76,-2.064 C 2.504,-1.471 1.816,-1.745 0.973,-1.745 h -1.759 v -3.168 h -2.371 z"
     id="path3484"
     style="fill:#c5a47e;fill-opacity:1;fill-rule:nonzero;stroke:none"
     transform="matrix(10.544921,0,0,-10.544921,827.41088,139.90573)" /><path
     d="m 0,0 c -0.878,0.926 -1.329,2.089 -1.329,3.477 0,1.365 0.451,2.516 1.329,3.454 0.913,0.96 2.041,1.435 3.395,1.435 1.827,0 3.191,-0.759 4.105,-2.278 L 5.602,5.043 C 5.555,5.162 5.458,5.293 5.316,5.447 4.807,6.016 4.153,6.301 3.37,6.301 2.587,6.301 2.005,5.993 1.614,5.388 1.282,4.878 1.115,4.213 1.115,3.382 1.115,2.54 1.317,1.887 1.709,1.4 2.137,0.866 2.766,0.605 3.584,0.605 c 0.475,0 0.914,0.154 1.306,0.451 0.426,0.321 0.665,0.7 0.712,1.163 H 3.514 V 4.118 H 8.07 V 3.619 C 8.07,2.077 7.69,0.866 6.918,-0.012 6.111,-0.926 4.948,-1.389 3.417,-1.389 2.029,-1.389 0.891,-0.926 0,0"
     id="path3440"
     style="fill:#c5a47e;fill-opacity:1;fill-rule:nonzero;stroke:none"
     transform="matrix(10.544921,0,0,-10.544921,215.41424,301.43705)" /><path
     d="m 0,0 c 0.818,0 1.222,0.38 1.222,1.139 0,0.76 -0.391,1.14 -1.199,1.14 H -0.715 V 0 Z m -3.085,4.094 h 3.619 c 0.902,0 1.626,-0.25 2.207,-0.736 0.594,-0.522 0.902,-1.222 0.902,-2.112 0,-1.258 -0.522,-2.089 -1.566,-2.481 L 4.51,-4.996 H 1.673 l -1.91,3.204 h -0.478 v -3.204 h -2.37 z"
     id="path3500"
     style="fill:#c5a47e;fill-opacity:1;fill-rule:nonzero;stroke:none"
     transform="matrix(10.544921,0,0,-10.544921,347.9059,259.89533)" /><path
     d="M 0,0 C -0.808,0.605 -1.223,1.436 -1.223,2.48 V 8.628 H 1.15 V 2.979 c 0,-1.092 0.546,-1.638 1.639,-1.638 0.485,0 0.904,0.131 1.19,0.392 0.295,0.272 0.45,0.652 0.45,1.127 V 8.628 H 6.8 V 2.741 C 6.8,1.59 6.407,0.7 5.612,0.059 4.889,-0.51 3.928,-0.795 2.74,-0.795 1.648,-0.795 0.735,-0.534 0,0"
     id="path3444"
     style="fill:#c5a47e;fill-opacity:1;fill-rule:nonzero;stroke:none"
     transform="matrix(10.544921,0,0,-10.544921,416.75685,307.69757)" /><path
     d="M 0,0 3.002,4.698 H 3.006 5.373 V -4.393 H 3.006 V 0.942 H 3.002 L 0.639,-2.766 h -1.257 l -2.375,3.708 h -0.004 v -5.335 h -2.376 v 9.091 h 2.376 z"
     id="path3492"
     style="fill:#c5a47e;fill-opacity:1;fill-rule:nonzero;stroke:none"
     transform="matrix(10.544921,0,0,-10.544921,562.81034,266.26447)" /><path
     d="M 0,0 3.001,4.698 H 3.005 5.373 V -4.393 H 3.005 V 0.942 H 3.001 L 0.639,-2.766 h -1.257 l -2.375,3.708 h -0.009 l -0.001,-5.335 h -2.37 v 9.091 h 2.375 z"
     id="path3496"
     style="fill:#c5a47e;fill-opacity:1;fill-rule:nonzero;stroke:none"
     transform="matrix(10.544921,0,0,-10.544921,696.69076,266.26447)" /><path
     id="path3448"
     d="M 0,0 -0.961,2.777 -1.934,0 Z m -2.286,5.578 h 2.714 l 3.37,-9.091 H 1.234 l -0.617,1.685 h -3.143 l -0.606,-1.685 h -2.529 z"
     style="fill:#c5a47e;fill-opacity:1;fill-rule:nonzero;stroke:none"
     transform="matrix(10.544921,0,0,-10.544921,825.75321,275.53767)" /><path
     d="M 0,0 H 2.374 L 6.555,-5.388 V 0 H 8.924 V -9.091 H 6.55 L 2.372,-3.667 V -9.091 H 0 Z"
     id="path3452"
     style="fill:#c5a47e;fill-opacity:1;fill-rule:nonzero;stroke:none"
     transform="matrix(10.544921,0,0,-10.544921,879.57976,216.72232)" /><path
     d="m 0,0 v -2.373 h 19.036 v -18.179 h 2.372 V 0 Z"
     id="path3488"
     style="fill:#c5a47e;fill-opacity:1;fill-rule:nonzero;stroke:none"
     transform="matrix(10.544921,0,0,-10.544921,879.57976,95.857489)" /></g></svg>
