<?xml version="1.0" encoding="UTF-8" standalone="no"?>
<!-- Generator: Adobe Illustrator 16.0.0, SVG Export Plug-In . SVG Version: 6.00 Build 0)  -->

<svg
   version="1.1"
   id="Layer_1"
   x="0px"
   y="0px"
   width="200px"
   height="76px"
   viewBox="0 0 200 76"
   enable-background="new 0 0 200 76"
   xml:space="preserve"
   sodipodi:docname="P&amp;G_h.svg"
   inkscape:version="1.2.1 (9c6d41e, 2022-07-14)"
   xmlns:inkscape="http://www.inkscape.org/namespaces/inkscape"
   xmlns:sodipodi="http://sodipodi.sourceforge.net/DTD/sodipodi-0.dtd"
   xmlns="http://www.w3.org/2000/svg"
   xmlns:svg="http://www.w3.org/2000/svg"><defs
   id="defs9395"><filter
     id="Adobe_OpacityMaskFilter"
     width="346.39999"
     height="719.40002"
     x="0"
     y="0.30000001"
     filterUnits="userSpaceOnUse"><feColorMatrix
       values="1 0 0 0 0 0 1 0 0 0 0 0 1 0 0 0 0 0 1 0"
       id="feColorMatrix11065" /></filter></defs><sodipodi:namedview
   id="namedview9393"
   pagecolor="#ffffff"
   bordercolor="#000000"
   borderopacity="0.25"
   inkscape:showpageshadow="2"
   inkscape:pageopacity="0.0"
   inkscape:pagecheckerboard="0"
   inkscape:deskcolor="#d1d1d1"
   showgrid="false"
   inkscape:zoom="3.1317795"
   inkscape:cx="98.825605"
   inkscape:cy="17.881208"
   inkscape:window-width="1250"
   inkscape:window-height="906"
   inkscape:window-x="0"
   inkscape:window-y="25"
   inkscape:window-maximized="0"
   inkscape:current-layer="Layer_1" />

<g
   id="g11119"
   style="fill:#000000;fill-opacity:1"
   transform="matrix(0.2031171,0,0,0.2031171,20.246071,-34.591293)"><path
     d="M 353.9,325.7 C 377.8,266.8 333.1,250.8 304,250.8 h -96.4 c 8,5.5 6.7,12.8 5.1,17.3 l -56.2,179.5 c -2.2,7.1 -10.6,14.6 -15.1,15.7 h 78 c -4.3,-0.8 -10.4,-6.9 -8.2,-15.2 l 20.4,-64.9 c 0.1,0 93.9,12.7 122.3,-57.5 z m -75.8,-58.4 c 10.2,0 38.5,1.4 20.2,54.9 -19.1,56.2 -61.5,44.6 -61.5,44.6 L 268,267.3 Z"
     fill="#fff"
     id="path11113"
     style="fill:#c5a47e;fill-opacity:1" /><path
     d="m 416.3,463.4 h 52.5 C 452,458 427.2,442.1 417.3,430.8 c 8,-8.7 17.9,-19.7 19.7,-42 h -27.2 c 0,0 5.2,3 5.2,9.4 0,5.9 -2.4,14.1 -7,19.8 -8,-11.8 -16.5,-25.3 -19.5,-45.1 10.7,-5.3 25.7,-11.1 37.6,-21.5 11.3,-9.9 13.9,-19.3 14.1,-25.4 v -0.8 c 0,-6.4 -2.5,-12.4 -7.1,-16.9 -7.9,-7.8 -20.3,-11 -33.4,-8.6 -10.5,2 -19.4,7.6 -23.9,11.7 -15.8,14.9 -17.8,39.4 -17.8,50.5 0,2.7 0.1,4.7 0.2,5.9 -0.9,0.4 -2.5,1 -2.5,1 -11.6,4.3 -42.5,12.5 -53.5,37.9 -1.4,3.2 -3.4,10.2 -3.4,18.3 0,7 1.5,14.8 6,21.9 7.8,12.2 21,19.9 42.2,19.5 23,-0.4 45.7,-16.1 49.7,-19 3.9,3.7 14.2,13.4 19.6,16 z m 0,-142 c -2.7,17.1 -24.9,34.4 -30.3,36.7 -1,-9.6 -0.5,-24.8 7.5,-37.2 5.3,-8.2 12.4,-11.8 18.1,-9.8 4.6,1.6 5.1,5.8 4.7,10.3 z m -30.8,114.4 c -3.1,1.9 -15.3,8.1 -26.7,9.2 -10.6,1 -28.2,-3.1 -28.1,-24.3 0,-18.1 19.7,-31.4 30.4,-36 4.3,17.5 14,37.3 24.4,51.1 z"
     fill="#fff"
     id="path11115"
     style="fill:#c5a47e;fill-opacity:1" /><path
     d="m 575.8,267.5 c 31.2,-7.5 56.9,16.9 59.2,18.6 l 8.9,-28.3 c -12.3,-3.7 -101.8,-34 -165.1,38.2 -38.9,44.4 -48.4,135.4 0.9,159.8 52.8,26.1 111.1,-4 115.4,-6.1 l 24.1,-76.8 c 2.6,-9.3 8.5,-15.3 18.9,-19.2 h -83.8 c 12.2,5.1 11.3,14.3 10.4,18.1 l -24.1,76.8 c -3.2,0.6 -70.6,17.4 -32.9,-100.5 8.3,-25.3 31,-71.7 68.1,-80.6 z"
     fill="#fff"
     id="path11117"
     style="fill:#c5a47e;fill-opacity:1" /></g></svg>
