<?xml version="1.0" encoding="UTF-8" standalone="no"?>
<!-- Generator: Adobe Illustrator 16.0.0, SVG Export Plug-In . SVG Version: 6.00 Build 0)  -->

<svg
   version="1.1"
   id="Layer_1"
   x="0px"
   y="0px"
   width="200px"
   height="76px"
   viewBox="0 0 200 76"
   enable-background="new 0 0 200 76"
   xml:space="preserve"
   sodipodi:docname="PNC_h.svg"
   inkscape:version="1.2.1 (9c6d41e, 2022-07-14)"
   xmlns:inkscape="http://www.inkscape.org/namespaces/inkscape"
   xmlns:sodipodi="http://sodipodi.sourceforge.net/DTD/sodipodi-0.dtd"
   xmlns="http://www.w3.org/2000/svg"
   xmlns:svg="http://www.w3.org/2000/svg"><defs
   id="defs145" /><sodipodi:namedview
   id="namedview143"
   pagecolor="#ffffff"
   bordercolor="#000000"
   borderopacity="0.25"
   inkscape:showpageshadow="2"
   inkscape:pageopacity="0.0"
   inkscape:pagecheckerboard="0"
   inkscape:deskcolor="#d1d1d1"
   showgrid="false"
   showguides="true"
   inkscape:zoom="3.8641181"
   inkscape:cx="94.717603"
   inkscape:cy="60.815947"
   inkscape:window-width="1250"
   inkscape:window-height="906"
   inkscape:window-x="0"
   inkscape:window-y="25"
   inkscape:window-maximized="0"
   inkscape:current-layer="Layer_1" />
	
<g
   id="g3868"
   transform="matrix(1.9592998,0,0,1.9592998,6.8179084,10.554878)"><g
     id="g3844">
	<path
   fill="#ffffff"
   d="m 13.9,0.6 c -7.3,0 -13.3,6 -13.3,13.3 0,7.3 5.9,13.3 13.3,13.3 7.3,0 13.3,-5.9 13.3,-13.3 0,-7.3 -6,-13.3 -13.3,-13.3"
   id="path3842" />
</g><path
     fill="#f58025"
     d="M 20.8,15.9 H 17.9 C 18,15.5 18,15.1 17.7,14.6 L 13,6.4 C 12.3,5.2 11.6,4.3 11,3.6 c 0,0 0,0 0,0 1.9,1 5.6,3.1 12.8,7.3 l 0.4,0.2 c 1.3,0.8 2.1,2 1.9,2.8 -0.3,1.3 -2.2,2 -5.3,2 m -9.4,8 -0.4,0.3 C 9.7,25 8.2,25 7.6,24.4 6.8,23.6 7.2,21.6 8.7,18.9 l 1.4,-2.5 c 0.3,0.3 0.7,0.5 1.2,0.5 h 9.4 c 1.4,0 2.5,-0.1 3.5,-0.4 0,0 0,0 0,0 -1.8,1.2 -5.5,3.3 -12.8,7.4 M 6.4,6.7 V 6.2 C 6.4,4.7 7,3.4 7.9,3.2 9,2.9 10.6,4.3 12.1,6.9 l 1.4,2.5 c -0.4,0.1 -0.8,0.4 -1,0.8 l -4.7,8.1 c -0.7,1.2 -1.2,2.2 -1.4,3.2 0,0 0,0 0,0 0,-2.1 0,-6.4 0,-14.8 M 13.9,0 C 6.2,0 0,6.2 0,13.9 0,21.6 6.2,27.8 13.9,27.8 21.6,27.8 27.8,21.6 27.8,13.9 27.8,6.2 21.6,0 13.9,0"
     id="path3848"
     style="fill:#c5a47e;fill-opacity:1" /><path
     fill="#ffffff"
     d="m 42.2,3.8 h -9.1 -0.2 v 0.9 h 0.2 c 3.2,0.4 3.6,0.8 3.6,2.5 v 17.2 h 3.7 v -9 h 1.5 c 3.5,0 10.8,0 10.8,-5.8 0,-5.8 -6.8,-5.8 -10.5,-5.8 M 41.8,13.9 H 40.4 V 7.2 c 0,-1.6 0,-1.8 3,-1.8 3.4,0 5.2,1.5 5.2,4.3 0,3.7 -3.5,4.2 -6.8,4.2"
     id="path3850"
     style="fill:#c5a47e;fill-opacity:1" /><path
     fill="#ffffff"
     d="M 73.5,3.8 H 71.3 V 19.9 C 70.8,19.1 59.8,3.8 59.8,3.8 H 52 v 0.9 h 0.2 c 3.2,0.4 3.6,0.6 3.6,2.8 v 16.9 h 2.4 V 7.1 c 0.6,0.8 12.5,17.3 12.5,17.3 h 3.2 V 3.8 Z"
     id="path3852"
     style="fill:#c5a47e;fill-opacity:1" /><path
     fill="#ffffff"
     d="m 76.6,13.4 c 0,5.6 3.4,11.3 11.1,11.3 3.6,0 5.4,-0.4 7.1,-0.8 H 95 v -1.7 l -0.3,0.1 c -1.8,0.5 -3.5,0.7 -4.9,0.7 -6.1,0 -9.1,-3.4 -9.1,-10.3 0,-4.6 2.2,-7.4 5.9,-7.4 2.5,0 3.9,1 4.3,2.9 V 8.4 H 95 V 8 C 94.9,6.9 93.9,3.4 86.8,3.4 80,3.4 76.6,6.8 76.6,13.4"
     id="path3854"
     style="fill:#c5a47e;fill-opacity:1" /></g></svg>
